<?xml version="1.0" standalone="no"?>
<!DOCTYPE svg PUBLIC "-//W3C//DTD SVG 20010904//EN"
 "http://www.w3.org/TR/2001/REC-SVG-20010904/DTD/svg10.dtd">
<svg version="1.0" xmlns="http://www.w3.org/2000/svg"
 width="300.000000pt" height="300.000000pt" viewBox="0 0 300.000000 300.000000"
 preserveAspectRatio="xMidYMid meet">
<metadata>
Created by potrace 1.11, written by Peter Selinger 2001-2013
</metadata>
<g transform="translate(0.000000,300.000000) scale(0.100000,-0.100000)"
fill="#000000" stroke="none">
<path d="M420 1490 l0 -1160 175 0 175 0 0 1160 0 1160 -175 0 -175 0 0 -1160z"/>
<path d="M880 1480 l0 -1160 175 0 175 0 0 1160 0 1160 -175 0 -175 0 0 -1160z
m340 0 l0 -1150 -165 0 -165 0 0 1150 0 1150 165 0 165 0 0 -1150z"/>
<path d="M950 1535 l0 -575 115 0 115 0 0 575 0 575 -115 0 -115 0 0 -575z"/>
<path d="M1773 2115 c-181 -39 -327 -179 -389 -373 -24 -72 -29 -272 -10 -360
61 -290 293 -459 601 -439 49 3 117 13 150 22 72 19 212 84 260 121 l35 26 0
234 0 234 -245 0 -245 0 0 -95 0 -95 130 0 130 0 0 -73 c0 -87 -3 -91 -105
-139 -63 -29 -79 -33 -160 -33 -79 0 -97 4 -147 28 -69 34 -120 90 -150 166
-20 49 -23 73 -23 206 0 141 2 153 26 205 50 105 138 166 254 177 125 11 218
-33 270 -129 15 -29 29 -54 30 -55 2 -4 217 36 222 41 2 2 -4 25 -13 52 -50
150 -161 245 -321 279 -84 18 -218 18 -300 0z"/>
<path d="M1320 635 c0 -98 1 -105 20 -105 19 0 20 7 20 105 0 98 -1 105 -20
105 -19 0 -20 -7 -20 -105z"/>
<path d="M1602 728 c-7 -7 -12 -18 -12 -25 0 -7 -4 -13 -10 -13 -5 0 -10 -7
-10 -15 0 -8 5 -15 10 -15 6 0 10 -28 10 -65 0 -51 3 -65 15 -65 12 0 15 14
15 65 0 51 3 65 15 65 21 0 19 28 -2 33 -15 4 -15 6 5 12 12 4 22 14 22 21 0
17 -41 19 -58 2z"/>
<path d="M2030 635 l0 -105 75 0 c68 0 75 2 75 20 0 18 -7 20 -55 20 l-55 0 0
85 c0 78 -2 85 -20 85 -19 0 -20 -7 -20 -105z"/>
<path d="M2410 706 c0 -34 0 -34 -29 -23 -25 9 -33 8 -50 -7 -42 -38 -34 -116
15 -138 20 -9 30 -9 47 1 15 10 22 11 25 2 2 -6 10 -11 18 -11 11 0 14 21 14
105 0 98 -1 105 -20 105 -16 0 -20 -7 -20 -34z m-5 -90 c0 -46 -23 -68 -49
-47 -19 16 -21 62 -4 79 7 7 22 11 33 10 16 -2 20 -11 20 -42z"/>
<path d="M2223 710 c-3 -11 -9 -20 -14 -20 -5 0 -9 -7 -9 -15 0 -8 5 -15 10
-15 6 0 10 -26 10 -59 0 -59 7 -71 46 -71 19 0 18 26 -1 34 -10 4 -15 20 -15
51 0 33 4 45 15 45 8 0 15 7 15 15 0 8 -7 15 -15 15 -8 0 -15 9 -15 20 0 11
-5 20 -11 20 -6 0 -13 -9 -16 -20z"/>
<path d="M1400 610 c0 -73 2 -80 20 -80 16 0 19 8 22 63 3 59 4 62 28 62 24 0
25 -3 28 -62 3 -55 6 -63 22 -63 18 0 20 7 20 59 0 79 -24 112 -69 94 -17 -6
-31 -7 -31 -2 0 5 -9 9 -20 9 -18 0 -20 -7 -20 -80z"/>
<path d="M1680 608 c0 -71 2 -78 20 -78 18 0 20 7 20 60 0 55 2 61 25 70 39
15 29 28 -20 28 l-45 -1 0 -79z"/>
<path d="M1804 675 c-16 -13 -17 -16 -4 -24 9 -7 18 -7 24 -1 6 6 18 10 29 10
30 0 16 -33 -19 -42 -40 -10 -58 -31 -49 -57 8 -26 46 -37 74 -21 14 7 21 7
21 0 0 -5 8 -10 18 -10 15 0 17 8 12 70 -4 47 -10 74 -20 80 -22 14 -64 12
-86 -5z m64 -87 c-4 -31 -48 -39 -48 -9 0 17 12 25 43 30 5 0 7 -9 5 -21z"/>
</g>
</svg>
